<svg width="390" height="844" viewBox="0 0 390 844" xmlns="http://www.w3.org/2000/svg">
  <rect width="390" height="844" fill="#0a0a0a"/>

  <!-- STATUS BAR -->
  <text x="24" y="22" font-family="monospace" font-size="13" font-weight="700" fill="white">9:41</text>
  <rect x="350" y="12" width="28" height="14" rx="3" fill="none" stroke="white" stroke-width="1.5" opacity="0.8"/>
  <rect x="378" y="16" width="3" height="6" rx="1.5" fill="white" opacity="0.8"/>
  <rect x="352" y="14" width="22" height="10" rx="2" fill="white" opacity="0.8"/>

  <!-- FLASH HEADER -->
  <rect x="0" y="0" width="390" height="72" fill="#0a0a0a"/>
  <!-- Flash logo -->
  <rect x="16" y="36" width="32" height="32" rx="9" fill="#e8ff47"/>
  <polygon points="26,41 22,52 28,52 24,63 38,48 31,48 36,41" fill="#0a0a0a"/>
  <text x="56" y="57" font-family="monospace" font-size="18" font-weight="700" fill="white">Flash</text>
  <!-- Logout -->
  <rect x="336" y="38" width="36" height="36" rx="11" fill="#161616"/>
  <path d="M350 46 L348 56 M356 48 Q362 51 362 56 Q362 63 354 63 L348 63" stroke="#555" stroke-width="1.8" stroke-linecap="round" fill="none"/>

  <!-- MY EVENTS section header -->
  <text x="16" y="100" font-family="sans-serif" font-size="11" font-weight="700" fill="#444" letter-spacing="2">MY EVENTS</text>

  <!-- EVENT CARD 1 - Active -->
  <rect x="16" y="112" width="358" height="100" rx="16" fill="#111" stroke="#1e1e1e" stroke-width="1"/>
  <!-- Active dot -->
  <circle cx="36" cy="132" r="5" fill="#2ed573"/>
  <text x="48" y="136" font-family="sans-serif" font-size="13" font-weight="700" fill="#f0f0f0">Sarah &amp; Tom&#39;s Wedding</text>
  <text x="36" y="154" font-family="sans-serif" font-size="11" fill="#444">Sep 14, 2026 · 47 guests · 312 shots</text>
  <!-- Stats row -->
  <rect x="36" y="166" width="70" height="26" rx="7" fill="#161616"/>
  <text x="71" y="183" font-family="monospace" font-size="11" font-weight="700" fill="#e8ff47" text-anchor="middle">LIVE</text>
  <rect x="114" y="166" width="90" height="26" rx="7" fill="#161616"/>
  <text x="159" y="183" font-family="sans-serif" font-size="11" fill="#555" text-anchor="middle">8 shots left</text>
  <!-- QR button -->
  <rect x="318" y="120" width="40" height="40" rx="11" fill="#1a1a1a"/>
  <rect x="325" y="127" width="26" height="26" rx="3" fill="none" stroke="#555" stroke-width="1.5"/>
  <rect x="328" y="130" width="9" height="9" rx="1" fill="#555"/>
  <rect x="342" y="130" width="9" height="9" rx="1" fill="#555"/>
  <rect x="328" y="144" width="9" height="9" rx="1" fill="#555"/>
  <rect x="337" y="139" width="5" height="5" fill="#555"/>
  <rect x="342" y="144" width="9" height="9" rx="1" fill="#555"/>

  <!-- EVENT CARD 2 - Revealed -->
  <rect x="16" y="224" width="358" height="90" rx="16" fill="#111" stroke="#1a1a1a" stroke-width="1"/>
  <circle cx="36" cy="244" r="5" fill="#555"/>
  <text x="48" y="248" font-family="sans-serif" font-size="13" font-weight="700" fill="#888">James's 30th Birthday</text>
  <text x="36" y="266" font-family="sans-serif" font-size="11" fill="#333">Jun 20, 2026 · 23 guests · 89 shots</text>
  <rect x="36" y="280" width="80" height="24" rx="7" fill="#161616"/>
  <text x="76" y="296" font-family="sans-serif" font-size="11" fill="#444" text-anchor="middle">Revealed</text>

  <!-- EVENT CARD 3 -->
  <rect x="16" y="326" width="358" height="90" rx="16" fill="#111" stroke="#1a1a1a" stroke-width="1"/>
  <circle cx="36" cy="346" r="5" fill="#555"/>
  <text x="48" y="350" font-family="sans-serif" font-size="13" font-weight="700" fill="#888">777 Game Club - World Cup</text>
  <text x="36" y="368" font-family="sans-serif" font-size="11" fill="#333">Jun 14, 2026 · 156 guests · 891 shots</text>
  <rect x="36" y="382" width="80" height="24" rx="7" fill="#161616"/>
  <text x="76" y="398" font-family="sans-serif" font-size="11" fill="#444" text-anchor="middle">Revealed</text>

  <!-- Create new event FAB -->
  <rect x="16" y="432" width="358" height="52" rx="14" fill="#161616" stroke="#222" stroke-width="1" stroke-dasharray="4 4"/>
  <text x="160" y="463" font-family="sans-serif" font-size="14" font-weight="700" fill="#333" text-anchor="middle">+ New Event</text>

  <!-- Home indicator -->
  <rect x="155" y="828" width="80" height="5" rx="2.5" fill="white" opacity="0.3"/>
</svg>
